<svg width="25" height="25" viewBox="0 0 25 25" fill="none" xmlns="http://www.w3.org/2000/svg">
<path d="M12.105 24.21C18.7369 24.21 24.2121 18.7273 24.2121 12.105C24.2121 5.47312 18.7273 0 12.0954 0C5.47523 0 0 5.47312 0 12.105C0 18.7273 5.48484 24.21 12.105 24.21Z" fill="#888888"/>
<path d="M12.1028 18.9483C11.781 18.9483 11.5454 18.7202 11.5454 18.3867V17.5533C9.8165 17.4094 8.5152 16.4977 8.1691 15.1938C8.1191 15.0555 8.0957 14.9119 8.0957 14.7724C8.0957 14.2873 8.4266 13.9521 8.9275 13.9521C9.3456 13.9521 9.6234 14.1649 9.7956 14.61C9.9885 15.3204 10.5622 15.8623 11.5454 16.002V12.7812L11.3516 12.7345C9.3213 12.2604 8.2593 11.3379 8.2593 9.7584C8.2593 8.0491 9.6309 6.87749 11.5454 6.69093V5.87577C11.5454 5.54226 11.781 5.31421 12.1028 5.31421C12.4225 5.31421 12.6601 5.54226 12.6601 5.87577V6.69093C14.2893 6.86249 15.5251 7.76906 15.8479 9.0276C15.8797 9.1671 15.917 9.3108 15.917 9.4448C15.917 9.9131 15.5722 10.2377 15.0861 10.2377C14.6594 10.2377 14.387 9.997 14.2213 9.5958C13.9837 8.8779 13.4451 8.415 12.6601 8.2753V11.3243L12.9233 11.3805C15.0421 11.7682 16.1106 12.7516 16.1106 14.4112C16.1106 16.2668 14.6268 17.3925 12.6601 17.5704V18.3867C12.6601 18.7202 12.4225 18.9483 12.1028 18.9483ZM11.5454 11.0344V8.2669C10.6082 8.4173 10.0356 8.9751 10.0356 9.6426C10.0356 10.2942 10.4823 10.7325 11.4613 11.0109L11.5454 11.0344ZM12.6601 13.0476V16.002C13.7809 15.8719 14.3364 15.3033 14.3364 14.5355C14.3364 13.8412 13.9633 13.3943 12.8905 13.1095L12.6601 13.0476Z" fill="white"/>
</svg>
